<svg width="24" height="24" viewBox="0 0 24 24" fill="none" xmlns="http://www.w3.org/2000/svg">
<path d="M16.017 2H7.947C6.37015 2.00185 4.85844 2.62914 3.74353 3.74424C2.62862 4.85933 2.00159 6.37115 2 7.948L2 16.018C2.00185 17.5948 2.62914 19.1066 3.74424 20.2215C4.85933 21.3364 6.37115 21.9634 7.948 21.965H16.018C17.5948 21.9631 19.1066 21.3359 20.2215 20.2208C21.3364 19.1057 21.9634 17.5938 21.965 16.017V7.947C21.9631 6.37015 21.3359 4.85844 20.2208 3.74353C19.1057 2.62862 17.5938 2.00159 16.017 2V2ZM19.957 16.017C19.957 16.5344 19.8551 17.0468 19.6571 17.5248C19.4591 18.0028 19.1689 18.4371 18.803 18.803C18.4371 19.1689 18.0028 19.4591 17.5248 19.6571C17.0468 19.8551 16.5344 19.957 16.017 19.957H7.947C6.90222 19.9567 5.90032 19.5415 5.16165 18.8026C4.42297 18.0638 4.008 17.0618 4.008 16.017V7.947C4.00827 6.90222 4.42349 5.90032 5.16235 5.16165C5.90122 4.42297 6.90322 4.008 7.948 4.008H16.018C17.0628 4.00827 18.0647 4.42349 18.8034 5.16235C19.542 5.90122 19.957 6.90322 19.957 7.948V16.018V16.017Z" fill="url(#paint0_linear_2657_6945)"/>
<path d="M11.9823 6.82031C10.6137 6.82243 9.30184 7.3671 8.33421 8.33492C7.36658 9.30274 6.82216 10.6147 6.82031 11.9833C6.8219 13.3522 7.36634 14.6646 8.33421 15.6327C9.30209 16.6008 10.6144 17.1455 11.9833 17.1473C13.3524 17.1457 14.665 16.6012 15.6331 15.6331C16.6012 14.665 17.1457 13.3524 17.1473 11.9833C17.1452 10.6144 16.6003 9.3022 15.632 8.33451C14.6637 7.36682 13.3512 6.82264 11.9823 6.82131V6.82031ZM11.9823 15.1393C11.1456 15.1393 10.3431 14.8069 9.75139 14.2152C9.15971 13.6236 8.82731 12.8211 8.82731 11.9843C8.82731 11.1476 9.15971 10.3451 9.75139 9.75339C10.3431 9.16171 11.1456 8.82931 11.9823 8.82931C12.8191 8.82931 13.6216 9.16171 14.2132 9.75339C14.8049 10.3451 15.1373 11.1476 15.1373 11.9843C15.1373 12.8211 14.8049 13.6236 14.2132 14.2152C13.6216 14.8069 12.8191 15.1393 11.9823 15.1393Z" fill="url(#paint1_linear_2657_6945)"/>
<path d="M17.1569 8.09509C17.8401 8.09509 18.3939 7.54127 18.3939 6.85809C18.3939 6.17492 17.8401 5.62109 17.1569 5.62109C16.4737 5.62109 15.9199 6.17492 15.9199 6.85809C15.9199 7.54127 16.4737 8.09509 17.1569 8.09509Z" fill="url(#paint2_linear_2657_6945)"/>
<defs>
<linearGradient id="paint0_linear_2657_6945" x1="11.9825" y1="2" x2="11.9825" y2="21.965" gradientUnits="userSpaceOnUse">
<stop stop-color="#FF8ED0"/>
<stop offset="1" stop-color="#FB8971"/>
</linearGradient>
<linearGradient id="paint1_linear_2657_6945" x1="11.9838" y1="6.82031" x2="11.9838" y2="17.1473" gradientUnits="userSpaceOnUse">
<stop stop-color="#FF8ED0"/>
<stop offset="1" stop-color="#FB8971"/>
</linearGradient>
<linearGradient id="paint2_linear_2657_6945" x1="17.1569" y1="5.62109" x2="17.1569" y2="8.09509" gradientUnits="userSpaceOnUse">
<stop stop-color="#FF8ED0"/>
<stop offset="1" stop-color="#FB8971"/>
</linearGradient>
</defs>
</svg>
